<?xml version="1.0" encoding="UTF-8"?>
<svg version="1.1" xmlns="http://www.w3.org/2000/svg" width="256" height="256">
<path d="M0 0 C84.48 0 168.96 0 256 0 C256 84.48 256 168.96 256 256 C171.52 256 87.04 256 0 256 C0 171.52 0 87.04 0 0 Z " fill="#FE3671" transform="translate(0,0)"/>
<path d="M0 0 C24.24412656 -1.18908523 45.08078912 5.91616922 64 21 C64.89332031 21.69738281 65.78664063 22.39476563 66.70703125 23.11328125 C77.18861096 31.87819279 86.055487 44.23189049 91 57 C91 57.99 91 58.98 91 60 C91.66 60 92.32 60 93 60 C93.09539062 59.319375 93.19078125 58.63875 93.2890625 57.9375 C98.06922844 38.18648469 115.96931832 22.2082291 132.51953125 12.0390625 C148.99926575 2.21694267 165.25948121 -0.20469013 184 0 C184.63016641 14.93727778 182.65363921 28.45767455 176 42 C175.484375 43.05832031 174.96875 44.11664063 174.4375 45.20703125 C167.45580816 58.83102713 158.5642808 70.32763137 146.13818359 79.26953125 C134.81258482 87.44237713 127.12106064 96.32798338 123 110 C122.22248923 115.33973193 121.81595858 120.604434 121.68359375 126 C121.66494263 126.64066406 121.6462915 127.28132813 121.6270752 127.94140625 C121.55969039 130.29415448 121.49896519 132.64708968 121.4375 135 C121.293125 140.28 121.14875 145.56 121 151 C101.86 151 82.72 151 63 151 C62.75 134.3125 62.75 134.3125 62.70214844 129.1340332 C62.43274557 113.60001798 58.86476615 98.85817089 47.8125 87.3125 C44.57975318 84.25332348 41.19570834 81.6283251 37.5625 79.0625 C19.02359327 65.96098212 5.73733082 44.85848541 1.3203125 22.5703125 C0.11362682 15.01612956 -0.25188035 7.6403705 0 0 Z " fill="#FEFCFD" transform="translate(36,52)"/>
<path d="M0 0 C3.86309973 5.79464959 4.29108924 11.60115852 4.1953125 18.33984375 C4.19329834 19.0208313 4.19128418 19.70181885 4.18920898 20.40344238 C4.17885029 22.91486476 4.15092882 25.42619011 4.125 27.9375 C4.08375 33.568125 4.0425 39.19875 4 45 C23.14 45 42.28 45 62 45 C62 45.33 62 45.66 62 46 C54.32473491 46.15360914 46.64938155 46.30179086 38.97387791 46.4429636 C35.41017974 46.50868172 31.84653832 46.57629855 28.28295898 46.64819336 C24.19003366 46.73068566 20.09699621 46.80502956 16.00390625 46.87890625 C14.07581871 46.91945885 14.07581871 46.91945885 12.10877991 46.96083069 C10.92763107 46.98092697 9.74648224 47.00102325 8.52954102 47.02172852 C7.48363297 47.04171402 6.43772491 47.06169952 5.36012268 47.08229065 C3 47 3 47 2 46 C1.8521327 43.21357785 1.76493029 40.44880502 1.71875 37.66015625 C1.69113586 36.40421913 1.69113586 36.40421913 1.66296387 35.12290955 C1.6040259 32.43617996 1.55129749 29.7493857 1.5 27.0625 C1.43247175 23.53241337 1.35877245 20.00253591 1.28125 16.47265625 C1.26767456 15.65491226 1.25409912 14.83716827 1.2401123 13.99464417 C1.24913493 9.86420788 1.24913493 9.86420788 0 6 C-0.039992 4.00039988 -0.04346799 1.99952758 0 0 Z " fill="#E96B90" transform="translate(95,158)"/>
<path d="M0 0 C0.33 0 0.66 0 1 0 C1 2.97 1 5.94 1 9 C0.34 9 -0.32 9 -1 9 C-1 21.54 -1 34.08 -1 47 C-1.66 47 -2.32 47 -3 47 C-3.05001077 42.50172332 -3.08600376 38.00360055 -3.10986328 33.50512695 C-3.11982599 31.97970759 -3.13340109 30.45430684 -3.15087891 28.92895508 C-3.26119141 19.04300806 -3.16089137 9.48267412 0 0 Z " fill="#E95984" transform="translate(160,156)"/>
<path d="M0 0 C0.66 0 1.32 0 2 0 C2 2 2 2 0.0625 4 C-0.618125 4.66 -1.29875 5.32 -2 6 C-2.33 6.66 -2.66 7.32 -3 8 C-3.66 8 -4.32 8 -5 8 C-6.52299523 10.93720508 -7.80100302 13.9168649 -9 17 C-9.66 17 -10.32 17 -11 17 C-9.6750152 12.14652306 -7.71455382 8.97620247 -4.5 5.125 C-3.7059375 4.15820312 -2.911875 3.19140625 -2.09375 2.1953125 C-1.05734375 1.10863281 -1.05734375 1.10863281 0 0 Z " fill="#E64C7B" transform="translate(173,137)"/>
<path d="M0 0 C0.33 0.99 0.66 1.98 1 3 C-2.01416332 8.13524121 -5.67769038 12.89380586 -10 17 C-8.68018255 12.31812124 -6.80204328 8.99625079 -3.875 5.125 C-3.15054688 4.15820312 -2.42609375 3.19140625 -1.6796875 2.1953125 C-1.12539062 1.47085938 -0.57109375 0.74640625 0 0 Z " fill="#FEDEED" transform="translate(143,86)"/>
<path d="M0 0 C0.66 0.33 1.32 0.66 2 1 C0.02 3.31 -1.96 5.62 -4 8 C-4.99 7.67 -5.98 7.34 -7 7 C-4.69 4.69 -2.38 2.38 0 0 Z " fill="#FFD2E3" transform="translate(153,75)"/>
<path d="M0 0 C0.33 0 0.66 0 1 0 C1 2.97 1 5.94 1 9 C0.01 9.33 -0.98 9.66 -2 10 C-1.54177532 6.53058454 -1.10868317 3.32604951 0 0 Z " fill="#EB5C87" transform="translate(160,156)"/>
</svg>
